{"title":"Comedy Nights with Kapil - Sunny Deol - 17 Nov HQ 480p {GreatPal","uid":9208734,"size":640777796,"categoryP":"video","categoryS":"tv_shows","magnet":"?xt=urn:btih:342503b18d33cf22c966d53b819a380f1961d7c0&amp;dn=Comedy+Nights+with+Kapil+-+Sunny+Deol+-+17+Nov+HQ+480p+%7BGreatPal&amp;tr=udp%3A%2F%2Ftracker.openbittorrent.com%3A80&amp;tr=udp%3A%2F%2Fopen.demonii.com%3A1337&amp;tr=udp%3A%2F%2Ftracker.coppersurfer.tk%3A6969&amp;tr=udp%3A%2F%2Fexodus.desync.com%3A6969","seeders":1,"leechers":0,"uploader":"Palash995","files":12,"time":1384741725,"description":"Comedy Nights with Kapil - Sunny Deol - 17 Nov HQ 480p {GreatPalash}\n\nIn this episode, Kapil starts the show as Inspector Shamsher, who has opened a clinic in his police station and used one injection to inject 150 patients with the same needle. Later, Sunny Deol comes to the show to promote his upcoming film, Singh Saab The Great. Watch the complete show to know all and have a hearty laugh.\n\nRenowned, actor-comedian Kapil Sharma makes his debut as a TV show producer with his new show Comedy Nights With Kapil. He will be seen multiple roles of an actor, scriptwriter and producer in his production debut. Already famous for his amazing comic timing and his talent to dig humor out of any situation, he is ready present everyday life in a fresh ad unique way.\n\nScreenshots:-\n &lt;a href=&quot;\nhttp://imageshack.us/a/img577/985/0pt7.png&quot; rel=&quot;nofollow&quot; target=&quot;_NEW&quot;&gt;\nhttp://imageshack.us/a/img577/985/0pt7.png&lt;/a&gt;\n &lt;a href=&quot;\nhttp://imageshack.us/a/img849/8683/abpx.png&quot; rel=&quot;nofollow&quot; target=&quot;_NEW&quot;&gt;\nhttp://imageshack.us/a/img849/8683/abpx.png&lt;/a&gt;\n &lt;a href=&quot;\nhttp://imageshack.us/a/img201/3351/gtx4.png&quot; rel=&quot;nofollow&quot; target=&quot;_NEW&quot;&gt;\nhttp://imageshack.us/a/img201/3351/gtx4.png&lt;/a&gt;\n &lt;a href=&quot;\nhttp://imageshack.us/a/img843/2330/gfjs.png&quot; rel=&quot;nofollow&quot; target=&quot;_NEW&quot;&gt;\nhttp://imageshack.us/a/img843/2330/gfjs.png&lt;/a&gt;\n &lt;a href=&quot;\nhttp://imageshack.us/a/img32/5741/uouw.png&quot; rel=&quot;nofollow&quot; target=&quot;_NEW&quot;&gt;\nhttp://imageshack.us/a/img32/5741/uouw.png&lt;/a&gt;\n &lt;a href=&quot;\nhttp://imageshack.us/a/img689/8612/087b.png&quot; rel=&quot;nofollow&quot; target=&quot;_NEW&quot;&gt;\nhttp://imageshack.us/a/img689/8612/087b.png&lt;/a&gt;\n\nMedia Info:-\n\nGeneral\nComplete name                            : Comedy Nights with Kapil - Sunny Deol - 17 Nov HQ 480p {DAKU RG} {GreatPalash}.mp4\nFormat                                   : MPEG-4\nFormat profile                           : Base Media\nCodec ID                                 : isom\nFile size                                : 607 MiB\nDuration                                 : 1h 4mn\nOverall bit rate                         : 1 325 Kbps\nWriting application                      : Lavf54.63.104\n\nVideo\nID                                       : 1\nFormat                                   : AVC\nFormat/Info                              : Advanced Video Codec\nFormat profile                           : &lt;a class=&quot;__cf_email__&quot; href=&quot;/cdn-cgi/l/email-protection&quot; data-cfemail=&quot;8bc6eae2e5cbc7b8a5bb&quot;&gt;[email&amp;#160;protected]&lt;/a&gt;&lt;script cf-hash='f9e31' type=&quot;text/javascript&quot;&gt;\n/* &lt;![CDATA[ */!function(){try{var t=&quot;currentScript&quot;in document?document.currentScript:function(){for(var t=document.getElementsByTagName(&quot;script&quot;),e=t.length;e--;)if(t[e].getAttribute(&quot;cf-hash&quot;))return t[e]}();if(t&amp;&amp;t.previousSibling){var e,r,n,i,c=t.previousSibling,a=c.getAttribute(&quot;data-cfemail&quot;);if(a){for(e=&quot;&quot;,r=parseInt(a.substr(0,2),16),n=2;a.length-n;n+=2)i=parseInt(a.substr(n,2),16)^r,e+=String.fromCharCode(i);e=document.createTextNode(e),c.parentNode.replaceChild(e,c)}}}catch(u){}}();/* ]]&gt; */&lt;/script&gt;\nFormat settings, CABAC                   : Yes\nFormat settings, ReFrames                : 3 frames\nCodec ID                                 : avc1\nCodec ID/Info                            : Advanced Video Coding\nDuration                                 : 1h 4mn\nBit rate                                 : 1 065 Kbps\nWidth                                    : 854 pixels\nHeight                                   : 480 pixels\nDisplay aspect ratio                     : 16:9\nFrame rate mode                          : Constant\nFrame rate                               : 25.000 fps\nColor space                              : YUV\nChroma subsampling                       : 4:2:0\nBit depth                                : 8 bits\nScan type                                : Progressive\nBits/(Pixel*Frame)                       : 0.104\nStream size                              : 488 MiB (80%)\n\nAudio\nID                                       : 2\nFormat                                   : AAC\nFormat/Info                              : Advanced Audio Codec\nFormat profile                           : LC\nCodec ID                                 : 40\nDuration                                 : 1h 4mn\nBit rate mode                            : Constant\nBit rate                                 : 254 Kbps\nChannel(s)                               : 2 channels\nChannel positions                        : Front: L R\nSampling rate                            : 44.1 KHz\nCompression mode                         : Lossy\nDelay relative to video                  : 40ms\nStream size                              : 116 MiB (19%)\n &lt;a href=&quot;\nhttp://imageshack.us/a/img89/4822/zka.gif&quot; rel=&quot;nofollow&quot; target=&quot;_NEW&quot;&gt;\nhttp://imageshack.us/a/img89/4822/zka.gif&lt;/a&gt;\n &lt;a href=&quot;\nhttp://imageshack.us/a/img200/185/tj8.gif&quot; rel=&quot;nofollow&quot; target=&quot;_NEW&quot;&gt;\nhttp://imageshack.us/a/img200/185/tj8.gif&lt;/a&gt;\n &lt;a href=&quot;\nhttp://imageshack.us/a/img593/9603/ua8.gif&quot; rel=&quot;nofollow&quot; target=&quot;_NEW&quot;&gt;\nhttp://imageshack.us/a/img593/9603/ua8.gif&lt;/a&gt;\n &lt;a href=&quot;\nhttp://imageshack.us/a/img707/5608/ysmp.png&quot; rel=&quot;nofollow&quot; target=&quot;_NEW&quot;&gt;\nhttp://imageshack.us/a/img707/5608/ysmp.png&lt;/a&gt;\n &lt;a href=&quot;\nhttp://imageshack.us/a/img42/9563/3nt.gif&quot; rel=&quot;nofollow&quot; target=&quot;_NEW&quot;&gt;\nhttp://imageshack.us/a/img42/9563/3nt.gif&lt;/a&gt;","torrent":{"xt":"urn:btih:342503b18d33cf22c966d53b819a380f1961d7c0","amp;dn":"Comedy+Nights+with+Kapil+-+Sunny+Deol+-+17+Nov+HQ+480p+%7BGreatPal","amp;tr":["udp%3A%2F%2Ftracker.openbittorrent.com%3A80","udp%3A%2F%2Fopen.demonii.com%3A1337","udp%3A%2F%2Ftracker.coppersurfer.tk%3A6969","udp%3A%2F%2Fexodus.desync.com%3A6969"],"infoHash":"342503b18d33cf22c966d53b819a380f1961d7c0","infoHashBuffer":{"type":"Buffer","data":[52,37,3,177,141,51,207,34,201,102,213,59,129,154,56,15,25,97,215,192]},"announce":[],"urlList":[]}}